<svg width="75" height="75" viewBox="0 0 75 75" fill="none" xmlns="http://www.w3.org/2000/svg">
<path d="M35 10.4434C36.547 9.55021 38.453 9.55021 40 10.4434L59.6817 21.8066C61.2287 22.6998 62.1817 24.3504 62.1817 26.1368V48.8633C62.1817 50.6496 61.2287 52.3002 59.6817 53.1934L40 64.5566C38.453 65.4498 36.547 65.4498 35 64.5566L15.3183 53.1934C13.7713 52.3002 12.8183 50.6496 12.8183 48.8632V26.1368C12.8183 24.3504 13.7713 22.6998 15.3183 21.8066L35 10.4434Z" fill="#1DA99D"/>
<path d="M35.25 1.87639C36.6423 1.07254 38.3577 1.07254 39.75 1.87639L67.226 17.7396C68.6183 18.5435 69.476 20.0291 69.476 21.6368V53.3633C69.476 54.9709 68.6183 56.4565 67.226 57.2604L39.75 73.1236C38.3577 73.9275 36.6423 73.9275 35.25 73.1236L7.77405 57.2604C6.38174 56.4565 5.52405 54.9709 5.52405 53.3632V21.6367C5.52405 20.0291 6.38174 18.5435 7.77405 17.7396L35.25 1.87639Z" stroke="#ABB6B8"/>
<path d="M39.6045 29.3379V45H36.5V33.0225L32.8047 34.1719V31.6582L39.2715 29.3379H39.6045Z" fill="#FEFEFE"/>
</svg>
