<svg width="75" height="75" viewBox="0 0 75 75" fill="none" xmlns="http://www.w3.org/2000/svg">
<path d="M35 10.4434C36.547 9.55021 38.453 9.55021 40 10.4434L59.6817 21.8066C61.2287 22.6998 62.1817 24.3504 62.1817 26.1368V48.8633C62.1817 50.6496 61.2287 52.3002 59.6817 53.1934L40 64.5566C38.453 65.4498 36.547 65.4498 35 64.5566L15.3183 53.1934C13.7713 52.3002 12.8183 50.6496 12.8183 48.8632V26.1368C12.8183 24.3504 13.7713 22.6998 15.3183 21.8066L35 10.4434Z" fill="#1DA99D"/>
<path d="M35.25 1.87639C36.6423 1.07254 38.3577 1.07254 39.75 1.87639L67.226 17.7396C68.6183 18.5435 69.476 20.0291 69.476 21.6368V53.3633C69.476 54.9709 68.6183 56.4565 67.226 57.2604L39.75 73.1236C38.3577 73.9275 36.6423 73.9275 35.25 73.1236L7.77405 57.2604C6.38174 56.4565 5.52405 54.9709 5.52405 53.3632V21.6367C5.52405 20.0291 6.38174 18.5435 7.77405 17.7396L35.25 1.87639Z" stroke="#ABB6B8"/>
<path d="M42.7842 42.4971V45H32.0742V42.873L37.1338 37.4805C37.8786 36.6569 38.4014 35.973 38.7021 35.4287C39.0101 34.8773 39.1641 34.3617 39.1641 33.8818C39.1641 33.18 38.9886 32.6322 38.6377 32.2383C38.2868 31.8372 37.7891 31.6367 37.1445 31.6367C36.6647 31.6367 36.2529 31.7513 35.9092 31.9805C35.5654 32.2025 35.304 32.514 35.125 32.915C34.9531 33.3161 34.8672 33.7708 34.8672 34.2793H31.7627C31.7627 33.334 31.9847 32.471 32.4287 31.6904C32.8727 30.9027 33.5065 30.2796 34.3301 29.8213C35.1536 29.363 36.1097 29.1338 37.1982 29.1338C38.2796 29.1338 39.1999 29.3128 39.959 29.6709C40.7181 30.0218 41.2946 30.5303 41.6885 31.1963C42.0824 31.8623 42.2793 32.6536 42.2793 33.5703C42.2793 34.2292 42.1468 34.8737 41.8818 35.5039C41.6169 36.1341 41.2409 36.7643 40.7539 37.3945C40.2669 38.0176 39.6331 38.7409 38.8525 39.5645L36.0596 42.4971H42.7842Z" fill="#FEFEFE"/>
</svg>
