<svg width="75" height="75" viewBox="0 0 75 75" fill="none" xmlns="http://www.w3.org/2000/svg">
<path d="M35 10.4434C36.547 9.55021 38.453 9.55021 40 10.4434L59.6817 21.8066C61.2287 22.6998 62.1817 24.3504 62.1817 26.1368V48.8633C62.1817 50.6496 61.2287 52.3002 59.6817 53.1934L40 64.5566C38.453 65.4498 36.547 65.4498 35 64.5566L15.3183 53.1934C13.7713 52.3002 12.8183 50.6496 12.8183 48.8632V26.1368C12.8183 24.3504 13.7713 22.6998 15.3183 21.8066L35 10.4434Z" fill="#1DA99D"/>
<path d="M35.25 1.87639C36.6423 1.07254 38.3577 1.07254 39.75 1.87639L67.226 17.7396C68.6183 18.5435 69.476 20.0291 69.476 21.6368V53.3633C69.476 54.9709 68.6183 56.4565 67.226 57.2604L39.75 73.1236C38.3577 73.9275 36.6423 73.9275 35.25 73.1236L7.77405 57.2604C6.38174 56.4565 5.52405 54.9709 5.52405 53.3632V21.6367C5.52405 20.0291 6.38174 18.5435 7.77405 17.7396L35.25 1.87639Z" stroke="#ABB6B8"/>
<path d="M35.2324 38.2324V35.7939H36.8867C37.6458 35.7939 38.2223 35.6042 38.6162 35.2246C39.0101 34.8379 39.207 34.3079 39.207 33.6348C39.207 33.0332 39.0244 32.5498 38.6592 32.1846C38.3011 31.8193 37.7783 31.6367 37.0908 31.6367C36.7113 31.6367 36.3604 31.7083 36.0381 31.8516C35.7158 31.9948 35.458 32.2025 35.2646 32.4746C35.0785 32.7396 34.9854 33.0511 34.9854 33.4092H31.8809C31.8809 32.5713 32.1064 31.8301 32.5576 31.1855C33.016 30.5339 33.6354 30.029 34.416 29.6709C35.1966 29.3128 36.0596 29.1338 37.0049 29.1338C38.0719 29.1338 39.0029 29.3057 39.7979 29.6494C40.5928 29.986 41.2087 30.4909 41.6455 31.1641C42.0895 31.8301 42.3115 32.6393 42.3115 33.5918C42.3115 34.2721 42.1003 34.9202 41.6777 35.5361C41.2552 36.1449 40.6715 36.6211 39.9268 36.9648C40.7861 37.2656 41.4378 37.7311 41.8818 38.3613C42.3258 38.9915 42.5479 39.7399 42.5479 40.6064C42.5479 41.5589 42.3079 42.3825 41.8281 43.0771C41.3555 43.7718 40.7002 44.3018 39.8623 44.667C39.0244 45.0322 38.0719 45.2148 37.0049 45.2148C36.0882 45.2148 35.2288 45.0501 34.4268 44.7207C33.6247 44.3841 32.973 43.8936 32.4717 43.249C31.9489 42.5902 31.6875 41.7451 31.6875 40.7139H34.8027C34.8027 41.0934 34.8994 41.4372 35.0928 41.7451C35.2933 42.0459 35.5654 42.2822 35.9092 42.4541C36.2601 42.626 36.654 42.7119 37.0908 42.7119C37.8213 42.7119 38.3942 42.5186 38.8096 42.1318C39.2321 41.738 39.4434 41.2152 39.4434 40.5635C39.4434 39.0094 38.584 38.2324 36.8652 38.2324H35.2324Z" fill="#FEFEFE"/>
</svg>
