<svg width="18" height="24" viewBox="0 0 18 24" fill="none" xmlns="http://www.w3.org/2000/svg">
<g clip-path="url(#clip0_1_328)">
<path fill-rule="evenodd" clip-rule="evenodd" d="M18 4.5C18 2.01487 15.9862 0 13.5 0C9.12375 0 1.5 0 1.5 0C0.67125 0 0 0.671625 0 1.5V19.5C0 21.9851 2.01375 24 4.5 24H16.5C17.3288 24 18 23.3284 18 22.5V4.5ZM6 19.5H6.75C7.57875 19.5 8.25 18.828 8.25 18C8.25 17.172 7.57875 16.5 6.75 16.5H6C5.17125 16.5 4.5 17.172 4.5 18C4.5 18.828 5.17125 19.5 6 19.5ZM11.25 19.5H12C12.8287 19.5 13.5 18.828 13.5 18C13.5 17.172 12.8287 16.5 12 16.5H11.25C10.4213 16.5 9.75 17.172 9.75 18C9.75 18.828 10.4213 19.5 11.25 19.5ZM6 15H6.75C7.57875 15 8.25 14.328 8.25 13.5C8.25 12.672 7.57875 12 6.75 12H6C5.17125 12 4.5 12.672 4.5 13.5C4.5 14.328 5.17125 15 6 15ZM11.25 15H12C12.8287 15 13.5 14.328 13.5 13.5C13.5 12.672 12.8287 12 12 12H11.25C10.4213 12 9.75 12.672 9.75 13.5C9.75 14.328 10.4213 15 11.25 15ZM13.5 6V9H4.5V6H13.5Z" fill="white"/>
</g>
<defs>
<clipPath id="clip0_1_328">
<rect width="18" height="24" fill="white"/>
</clipPath>
</defs>
</svg>
