<svg width="48" height="46" viewBox="0 0 48 46" fill="none" xmlns="http://www.w3.org/2000/svg">
<g filter="url(#filter0_d_526_2896)">
<rect x="8" y="8" width="32" height="30" rx="8" fill="#1DA99D"/>
</g>
<path d="M29.6856 30.9953L15.979 16.9336C15.4383 16.3789 15.4339 15.4974 15.9691 14.9646C16.5044 14.4318 17.3765 14.4497 17.9173 15.0044L31.6238 29.0661C32.1645 29.6208 32.169 30.5024 31.6337 31.0351C31.0985 31.5679 30.2263 31.55 29.6856 30.9953Z" fill="#FBFBFB"/>
<path d="M16.0074 28.6312L30.1104 14.9758C30.6668 14.437 31.5391 14.4447 32.0589 14.9929C32.5787 15.541 32.549 16.422 31.9926 16.9607L17.8896 30.6162C17.3333 31.1549 16.4609 31.1473 15.9411 30.5991C15.4213 30.051 15.451 29.1699 16.0074 28.6312Z" fill="#FBFBFB"/>
<defs>
<filter id="filter0_d_526_2896" x="0" y="0" width="48" height="46" filterUnits="userSpaceOnUse" color-interpolation-filters="sRGB">
<feFlood flood-opacity="0" result="BackgroundImageFix"/>
<feColorMatrix in="SourceAlpha" type="matrix" values="0 0 0 0 0 0 0 0 0 0 0 0 0 0 0 0 0 0 127 0" result="hardAlpha"/>
<feOffset/>
<feGaussianBlur stdDeviation="4"/>
<feComposite in2="hardAlpha" operator="out"/>
<feColorMatrix type="matrix" values="0 0 0 0 1 0 0 0 0 1 0 0 0 0 1 0 0 0 1 0"/>
<feBlend mode="normal" in2="BackgroundImageFix" result="effect1_dropShadow_526_2896"/>
<feBlend mode="normal" in="SourceGraphic" in2="effect1_dropShadow_526_2896" result="shape"/>
</filter>
</defs>
</svg>
