<svg width="470" height="41" viewBox="0 0 470 41" fill="none" xmlns="http://www.w3.org/2000/svg">
<path d="M216 28L222 34L216 40" stroke="#1DA99D" stroke-width="2"/>
<circle cx="138" cy="30" r="2" fill="#C4C4C4"/>
<circle cx="89" cy="19" r="2" fill="#C4C4C4"/>
<circle cx="41" cy="8" r="2" fill="#C4C4C4"/>
<circle cx="99" cy="21" r="2" fill="#C4C4C4"/>
<circle cx="50" cy="10" r="2" fill="#C4C4C4"/>
<circle cx="2" cy="2" r="2" fill="#C4C4C4"/>
<circle cx="148" cy="32" r="2" fill="#C4C4C4"/>
<circle cx="109" cy="23" r="2" fill="#C4C4C4"/>
<circle cx="60" cy="12" r="2" fill="#C4C4C4"/>
<circle cx="12" cy="4" r="2" fill="#C4C4C4"/>
<circle cx="158" cy="34" r="2" fill="#C4C4C4"/>
<circle cx="119" cy="25" r="2" fill="#C4C4C4"/>
<circle cx="70" cy="14" r="2" fill="#C4C4C4"/>
<circle cx="22" cy="5" r="2" fill="#C4C4C4"/>
<circle cx="168" cy="35" r="2" fill="#C4C4C4"/>
<circle cx="129" cy="28" r="2" fill="#C4C4C4"/>
<circle cx="80" cy="17" r="2" fill="#C4C4C4"/>
<circle cx="32" cy="7" r="2" fill="#C4C4C4"/>
<circle cx="178" cy="36" r="2" fill="#C4C4C4"/>
<circle cx="188" cy="37" r="2" fill="#C4C4C4"/>
<circle cx="198" cy="37" r="2" fill="#C4C4C4"/>
<circle cx="241" cy="34" r="2" fill="#C4C4C4"/>
<circle cx="232" cy="35" r="2" fill="#C4C4C4"/>
<circle cx="208" cy="36" r="2" fill="#C4C4C4"/>
<circle cx="251" cy="33" r="2" fill="#C4C4C4"/>
<circle cx="260" cy="32" r="2" fill="#C4C4C4"/>
<circle cx="269" cy="31" r="2" fill="#C4C4C4"/>
<circle cx="279" cy="30" r="2" fill="#C4C4C4"/>
<circle cx="289" cy="28" r="2" fill="#C4C4C4"/>
<circle cx="298" cy="27" r="2" fill="#C4C4C4"/>
<circle cx="327" cy="24" r="2" fill="#C4C4C4"/>
<circle cx="365" cy="20" r="2" fill="#C4C4C4"/>
<circle cx="403" cy="16" r="2" fill="#C4C4C4"/>
<circle cx="308" cy="26" r="2" fill="#C4C4C4"/>
<circle cx="337" cy="23" r="2" fill="#C4C4C4"/>
<circle cx="375" cy="19" r="2" fill="#C4C4C4"/>
<circle cx="413" cy="15" r="2" fill="#C4C4C4"/>
<circle cx="317" cy="25" r="2" fill="#C4C4C4"/>
<circle cx="355" cy="21" r="2" fill="#C4C4C4"/>
<circle cx="393" cy="17" r="2" fill="#C4C4C4"/>
<circle cx="346" cy="22" r="2" fill="#C4C4C4"/>
<circle cx="384" cy="18" r="2" fill="#C4C4C4"/>
<circle cx="422" cy="13" r="2" fill="#C4C4C4"/>
<circle cx="432" cy="12" r="2" fill="#C4C4C4"/>
<circle cx="441" cy="11" r="2" fill="#C4C4C4"/>
<circle cx="450" cy="10" r="2" fill="#C4C4C4"/>
<circle cx="459" cy="9" r="2" fill="#C4C4C4"/>
<circle cx="468" cy="8" r="2" fill="#C4C4C4"/>
</svg>
