<svg width="472" height="36" viewBox="0 0 472 36" fill="none" xmlns="http://www.w3.org/2000/svg">
<circle cx="282.102" cy="13.1022" r="2" transform="rotate(3.0067 282.102 13.1022)" fill="#C4C4C4"/>
<circle cx="293.102" cy="15.1022" r="2" transform="rotate(3.0067 293.102 15.1022)" fill="#C4C4C4"/>
<circle cx="425.102" cy="29.1022" r="2" transform="rotate(3.0067 425.102 29.1022)" fill="#C4C4C4"/>
<circle cx="458.102" cy="32.1022" r="2" transform="rotate(3.0067 458.102 32.1022)" fill="#C4C4C4"/>
<circle cx="436.102" cy="30.1022" r="2" transform="rotate(3.0067 436.102 30.1022)" fill="#C4C4C4"/>
<circle cx="469.102" cy="33.1022" r="2" transform="rotate(3.0067 469.102 33.1022)" fill="#C4C4C4"/>
<circle cx="304.102" cy="16.1022" r="2" transform="rotate(3.0067 304.102 16.1022)" fill="#C4C4C4"/>
<circle cx="315.102" cy="17.1022" r="2" transform="rotate(3.0067 315.102 17.1022)" fill="#C4C4C4"/>
<circle cx="326.176" cy="18.2329" r="2" transform="rotate(3.0067 326.176 18.2329)" fill="#C4C4C4"/>
<circle cx="337.102" cy="19.1022" r="2" transform="rotate(3.0067 337.102 19.1022)" fill="#C4C4C4"/>
<circle cx="348.006" cy="20.0061" r="2" transform="rotate(-0.175477 348.006 20.0061)" fill="#C4C4C4"/>
<circle cx="370.006" cy="23.0061" r="2" transform="rotate(-0.175477 370.006 23.0061)" fill="#C4C4C4"/>
<circle cx="359.006" cy="22.0061" r="2" transform="rotate(-0.175477 359.006 22.0061)" fill="#C4C4C4"/>
<circle cx="381.006" cy="24.0061" r="2" transform="rotate(-0.175477 381.006 24.0061)" fill="#C4C4C4"/>
<circle cx="392.006" cy="25.0061" r="2" transform="rotate(-0.175477 392.006 25.0061)" fill="#C4C4C4"/>
<circle cx="403.006" cy="26.0061" r="2" transform="rotate(-0.175477 403.006 26.0061)" fill="#C4C4C4"/>
<circle cx="414.006" cy="28.0061" r="2" transform="rotate(-0.175477 414.006 28.0061)" fill="#C4C4C4"/>
<circle cx="447.006" cy="31.0061" r="2" transform="rotate(-0.175477 447.006 31.0061)" fill="#C4C4C4"/>
<path d="M221.182 1.49268L227.182 7.49268L221.182 13.4927" stroke="#1DA99D" stroke-width="2"/>
<circle cx="100.198" cy="18.1981" r="2" transform="rotate(-6 100.198 18.1981)" fill="#C4C4C4"/>
<circle cx="46.1981" cy="23.1981" r="2" transform="rotate(-6 46.1981 23.1981)" fill="#C4C4C4"/>
<circle cx="67.1981" cy="21.1981" r="2" transform="rotate(-6 67.1981 21.1981)" fill="#C4C4C4"/>
<circle cx="13.1981" cy="27.1981" r="2" transform="rotate(-6 13.1981 27.1981)" fill="#C4C4C4"/>
<circle cx="2.1981" cy="27.1981" r="2" transform="rotate(-6 2.1981 27.1981)" fill="#C4C4C4"/>
<circle cx="111.198" cy="17.1981" r="2" transform="rotate(-6 111.198 17.1981)" fill="#C4C4C4"/>
<circle cx="56.1981" cy="22.1981" r="2" transform="rotate(-6 56.1981 22.1981)" fill="#C4C4C4"/>
<circle cx="78.1981" cy="20.1981" r="2" transform="rotate(-6 78.1981 20.1981)" fill="#C4C4C4"/>
<circle cx="24.1981" cy="26.1981" r="2" transform="rotate(-6 24.1981 26.1981)" fill="#C4C4C4"/>
<circle cx="122.198" cy="16.1981" r="2" transform="rotate(-6 122.198 16.1981)" fill="#C4C4C4"/>
<circle cx="89.1981" cy="19.1981" r="2" transform="rotate(-6 89.1981 19.1981)" fill="#C4C4C4"/>
<circle cx="35.1981" cy="25.1981" r="2" transform="rotate(-6 35.1981 25.1981)" fill="#C4C4C4"/>
<circle cx="133.194" cy="15.1943" r="2" transform="rotate(-5.87911 133.194 15.1943)" fill="#C4C4C4"/>
<circle cx="155.194" cy="13.1943" r="2" transform="rotate(-5.87911 155.194 13.1943)" fill="#C4C4C4"/>
<circle cx="144.194" cy="14.1943" r="2" transform="rotate(-5.87911 144.194 14.1943)" fill="#C4C4C4"/>
<circle cx="178.194" cy="11.1943" r="2" transform="rotate(-5.87911 178.194 11.1943)" fill="#C4C4C4"/>
<circle cx="166.194" cy="12.1943" r="2" transform="rotate(-5.87911 166.194 12.1943)" fill="#C4C4C4"/>
<circle cx="189.194" cy="10.1943" r="2" transform="rotate(-5.87911 189.194 10.1943)" fill="#C4C4C4"/>
<circle cx="200.194" cy="9.19429" r="2" transform="rotate(-5.87911 200.194 9.19429)" fill="#C4C4C4"/>
<circle cx="211.194" cy="8.19429" r="2" transform="rotate(-5.87911 211.194 8.19429)" fill="#C4C4C4"/>
<circle cx="237.194" cy="9.19429" r="2" transform="rotate(-5.87911 237.194 9.19429)" fill="#C4C4C4"/>
<circle cx="248.194" cy="10.1943" r="2" transform="rotate(-5.87911 248.194 10.1943)" fill="#C4C4C4"/>
<circle cx="259.194" cy="11.1943" r="2" transform="rotate(-5.87911 259.194 11.1943)" fill="#C4C4C4"/>
<circle cx="270.194" cy="12.1943" r="2" transform="rotate(-5.87911 270.194 12.1943)" fill="#C4C4C4"/>
</svg>
