<svg width="64" height="83" viewBox="0 0 64 83" fill="none" xmlns="http://www.w3.org/2000/svg">
<path d="M11.6261 65.1922C11.6261 67.738 9.6287 69.6084 6.87362 69.6084C4.11853 69.6084 2.12109 67.748 2.12109 65.1922C2.12109 62.6465 4.11853 60.8242 6.87362 60.8242C9.6287 60.8242 11.6261 62.6605 11.6261 65.1922ZM5.06215 65.2043C5.06215 66.4041 5.92587 67.2925 6.91288 67.2925C7.89989 67.2925 8.68991 66.4041 8.68991 65.2043C8.68991 64.0044 7.89989 63.1402 6.91288 63.1402C5.91347 63.1402 5.06215 64.0044 5.06215 65.2043Z" fill="white"/>
<path d="M19.731 65.2287V69.4165H16.9552V66.0085C16.9552 65.4565 16.6342 65.1088 16.1528 65.1088C15.61 65.1088 15.265 65.5288 15.265 66.1646V69.4165H12.4885V62.8511H15.265V63.789C15.7209 63.119 16.4242 62.7332 17.3127 62.7332C18.7316 62.7325 19.731 63.7166 19.731 65.2287Z" fill="white"/>
<path d="M27.6015 66.7406H23.2092C23.3945 67.2564 23.7892 67.5204 24.3319 67.5204C24.801 67.5204 25.2817 67.3194 25.7019 66.9322L27.1483 68.3123C26.4327 69.0807 25.3967 69.5128 24.0888 69.5128C21.7814 69.5128 20.4121 68.1923 20.4121 66.1631C20.4121 64.0863 21.8434 62.7551 24.0151 62.7551C26.3679 62.7558 27.7496 64.3168 27.6015 66.7406ZM24.0357 64.5566C23.5536 64.5566 23.2588 64.9405 23.1479 65.4945H24.8258C24.8623 64.9525 24.5172 64.5566 24.0357 64.5566Z" fill="white"/>
<path d="M45.7609 61.0046L42.8371 69.4164H39.9009L38.6053 64.3885L37.2732 69.4164H34.337L31.4373 61.0046H34.4968L35.8915 66.5243L37.2732 61.0046H40.0614L41.4706 66.5243L42.8399 61.0046H45.7609Z" fill="white"/>
<path d="M51.9042 65.1678V69.4159H49.178V68.7078C48.7833 69.2364 48.1449 69.5358 47.2777 69.5358C45.8471 69.5358 45.0199 68.7198 45.0199 67.4717C45.0199 66.1761 45.9208 65.4921 47.6372 65.468H49.178C49.1656 65.0124 48.8081 64.7478 48.129 64.7478C47.6235 64.7478 46.8458 64.8918 46.0813 65.1678L45.4614 63.3677C46.6089 62.9604 47.7936 62.7319 48.793 62.7319C50.745 62.7326 51.9042 63.6209 51.9042 65.1678ZM49.178 67.3163V66.7134H48.2137C47.8308 66.7134 47.6214 66.8936 47.6214 67.2413C47.6214 67.601 47.8432 67.8174 48.2378 67.8174C48.4247 67.8155 48.6083 67.7688 48.7722 67.6815C48.9362 67.5943 49.0756 67.4691 49.178 67.317V67.3163Z" fill="white"/>
<path d="M54.4822 71.8671C53.5944 71.8671 52.8787 71.6273 52.1507 71.0994L53.3106 69.3213C53.6068 69.5853 53.8781 69.7052 54.2108 69.7052C54.5318 69.7052 54.7412 69.5974 54.8769 69.3702L54.976 69.2142L52.1755 62.8538H55.0249L56.3577 66.598L57.4556 62.8538H60.219L57.4432 69.874C56.8757 71.2407 55.9259 71.8671 54.4822 71.8671Z" fill="white"/>
<path d="M15.807 79.2009C15.5832 79.2039 15.3641 79.1383 15.1809 79.0133C14.9915 78.8821 14.8432 78.7024 14.7524 78.4941C14.6457 78.2522 14.5933 77.9909 14.5988 77.7277V72.8753C14.5988 72.7895 14.6339 72.7072 14.6963 72.6465C14.7587 72.5858 14.8433 72.5518 14.9315 72.5518C15.0198 72.5518 15.1044 72.5858 15.1668 72.6465C15.2292 72.7072 15.2642 72.7895 15.2642 72.8753V77.7277C15.2548 77.9367 15.3079 78.1438 15.4171 78.3239C15.4554 78.3924 15.5116 78.4497 15.5801 78.4901C15.6486 78.5304 15.7269 78.5524 15.807 78.5537H16.0253C16.0644 78.5527 16.1033 78.5602 16.1391 78.5758C16.1749 78.5913 16.2066 78.6145 16.2319 78.6435C16.2872 78.7092 16.3154 78.7925 16.3111 78.8773C16.3126 78.9219 16.3035 78.9661 16.2845 79.0067C16.2655 79.0472 16.2372 79.083 16.2016 79.1111C16.121 79.1734 16.02 79.2052 15.9172 79.2009H15.807Z" fill="white"/>
<path d="M19.1592 79.2431C18.7215 79.2505 18.2897 79.1449 17.9077 78.937C17.546 78.7387 17.2465 78.4486 17.0412 78.0975C16.8341 77.7219 16.7258 77.3022 16.7258 76.8759C16.7258 76.4496 16.8341 76.03 17.0412 75.6543C17.2458 75.3019 17.5454 75.0105 17.9077 74.8115C18.2916 74.6101 18.721 74.5046 19.1571 74.5046C19.5933 74.5046 20.0227 74.6101 20.4066 74.8115C20.7667 75.0116 21.0645 75.3029 21.2682 75.6543C21.4831 76.0289 21.5946 76.4513 21.5919 76.8803C21.5994 77.3065 21.4893 77.7268 21.273 78.0975C21.0662 78.4483 20.7672 78.7392 20.4066 78.9403C20.0258 79.1472 19.5953 79.2517 19.1592 79.2431ZM19.1592 78.6476C19.4783 78.6523 19.7927 78.5729 20.0691 78.4178C20.3345 78.2677 20.5525 78.0497 20.6993 77.7874C20.8546 77.508 20.9332 77.1944 20.9273 76.8769C20.9329 76.5579 20.8544 76.2429 20.6993 75.9618C20.5535 75.6978 20.3353 75.4782 20.0691 75.3274C19.7907 75.1766 19.4774 75.0975 19.1589 75.0975C18.8403 75.0975 18.527 75.1766 18.2487 75.3274C17.9818 75.4788 17.7625 75.6981 17.6143 75.9618C17.4566 76.2421 17.3766 76.5575 17.3822 76.8769C17.3763 77.1949 17.4564 77.5089 17.6143 77.7874C17.7634 78.0493 17.9826 78.2672 18.2487 78.4178C18.5253 78.5729 18.8399 78.6523 19.1592 78.6476Z" fill="white"/>
<path d="M25.0145 79.2431C24.5856 79.2512 24.1623 79.1468 23.7892 78.9409C23.4361 78.7422 23.1466 78.4521 22.953 78.1029C22.747 77.7258 22.6432 77.3038 22.6513 76.8769C22.6423 76.4454 22.7511 76.0193 22.9668 75.6422C23.1707 75.2903 23.4706 75.0001 23.8333 74.8034C24.2197 74.6051 24.65 74.5015 25.0868 74.5015C25.5237 74.5015 25.954 74.6051 26.3404 74.8034C26.7007 75.0004 26.9978 75.2908 27.1986 75.6422C27.411 76.0207 27.5207 76.4456 27.5175 76.8769L27.1242 77.0779C27.1315 77.4672 27.0382 77.8521 26.8528 78.1973C26.6813 78.5167 26.4222 78.7836 26.1042 78.9684C25.7738 79.1555 25.3968 79.2506 25.0145 79.2431ZM25.102 81.0399C24.682 81.0485 24.2657 80.9625 23.8856 80.7886C23.5456 80.6293 23.2488 80.3946 23.0191 80.1033C22.9892 80.0748 22.9662 80.0402 22.9517 80.0019C22.9373 79.9637 22.9319 79.9228 22.9358 79.8822C22.9405 79.8424 22.9543 79.804 22.9762 79.7701C22.9982 79.7361 23.0277 79.7073 23.0625 79.6859C23.0991 79.661 23.1405 79.6436 23.1842 79.6348C23.2279 79.6261 23.273 79.6261 23.3167 79.635C23.4038 79.6483 23.4822 79.6942 23.535 79.763C23.7122 79.9725 23.935 80.1412 24.1873 80.2567C24.4767 80.3862 24.7925 80.4501 25.1109 80.4436C25.4217 80.4479 25.7276 80.3684 25.9946 80.2138C26.2601 80.0577 26.4766 79.8339 26.6207 79.5667C26.7812 79.2645 26.861 78.9279 26.8528 78.5879V77.2936L27.1063 76.7998L27.5196 76.8769V78.6133C27.5267 79.0458 27.4183 79.4726 27.2048 79.8521C27.003 80.2109 26.7071 80.5113 26.3473 80.723C25.9705 80.9391 25.5393 81.0488 25.102 81.0399ZM25.0848 78.6475C25.405 78.6536 25.721 78.5756 25.9995 78.4217C26.2631 78.2731 26.4795 78.0566 26.6249 77.796C26.7809 77.5138 26.8594 77.1972 26.8528 76.8769C26.8591 76.5551 26.7806 76.237 26.6249 75.953C26.4803 75.6909 26.2638 75.4729 25.9995 75.3233C25.721 75.1694 25.405 75.0914 25.0848 75.0975C24.7631 75.0918 24.4456 75.1697 24.1653 75.3233C23.8989 75.4719 23.6806 75.6901 23.535 75.953C23.3798 76.2372 23.3016 76.5551 23.3077 76.8769C23.3013 77.1971 23.3796 77.5136 23.535 77.796C23.6815 78.0573 23.8997 78.2739 24.1653 78.4217C24.4456 78.5753 24.7631 78.6533 25.0848 78.6475Z" fill="white"/>
<path d="M29.3034 73.6584C29.2415 73.6595 29.18 73.6481 29.1228 73.6251C29.0656 73.602 29.0138 73.5678 28.9708 73.5244C28.9254 73.4808 28.8898 73.4285 28.8661 73.3709C28.8424 73.3133 28.8311 73.2515 28.833 73.1895C28.8301 73.1267 28.8416 73.0641 28.8666 73.0062C28.8917 72.9483 28.9296 72.8964 28.9776 72.8545C29.0702 72.7739 29.1903 72.73 29.3145 72.7312C29.4359 72.731 29.5531 72.775 29.643 72.8545C29.6911 72.8964 29.729 72.9483 29.754 73.0062C29.779 73.0641 29.7905 73.1267 29.7876 73.1895C29.7881 73.2512 29.7759 73.3124 29.7519 73.3695C29.7278 73.4265 29.6923 73.4784 29.6474 73.5221C29.6026 73.5657 29.5493 73.6002 29.4906 73.6236C29.4319 73.647 29.3689 73.6589 29.3055 73.6584H29.3034ZM29.3117 79.2008C29.2654 79.2048 29.2189 79.1989 29.1752 79.1835C29.1316 79.1681 29.0919 79.1435 29.0591 79.1116C29.0262 79.0796 29.001 79.0411 28.9851 78.9986C28.9693 78.9562 28.9632 78.9108 28.9673 78.8658V74.873C28.963 74.828 28.9689 74.7825 28.9846 74.74C29.0004 74.6974 29.0256 74.6588 29.0585 74.6268C29.0914 74.5948 29.1312 74.5702 29.1749 74.5549C29.2187 74.5396 29.2654 74.5338 29.3117 74.538C29.356 74.5362 29.4002 74.5431 29.4417 74.5584C29.4831 74.5737 29.5209 74.5971 29.5528 74.6271C29.5841 74.6594 29.6084 74.6976 29.6242 74.7392C29.6399 74.7809 29.6468 74.8253 29.6444 74.8697V78.8625C29.6469 78.9069 29.6401 78.9513 29.6244 78.993C29.6086 79.0347 29.5842 79.0728 29.5528 79.105C29.5215 79.1362 29.484 79.1608 29.4425 79.1773C29.401 79.1938 29.3565 79.2018 29.3117 79.2008Z" fill="white"/>
<path d="M33.0318 79.2431C32.683 79.2426 32.3368 79.1851 32.0076 79.0729C31.6929 78.9744 31.4096 78.7986 31.1852 78.5624C31.1546 78.5327 31.1316 78.4964 31.1178 78.4566C31.1041 78.4167 31.1 78.3743 31.106 78.3326C31.1193 78.2451 31.1663 78.1658 31.2376 78.1109C31.3074 78.0588 31.3948 78.0343 31.4824 78.0423C31.57 78.0502 31.6513 78.09 31.7101 78.1538C31.8604 78.3196 32.0517 78.4455 32.2659 78.5195C32.511 78.6072 32.7706 78.6506 33.0318 78.6475C33.4634 78.6475 33.7757 78.5751 33.9685 78.4304C34.0565 78.3715 34.1292 78.2935 34.1808 78.2026C34.2324 78.1117 34.2616 78.0103 34.2661 77.9066C34.2661 77.702 34.1669 77.5332 33.9685 77.4001C33.7702 77.267 33.4432 77.1645 32.9877 77.0926C32.3986 77.0032 31.967 76.8445 31.6928 76.6162C31.4187 76.388 31.2809 76.1183 31.2796 75.807C31.27 75.5464 31.3538 75.2907 31.5165 75.0834C31.6814 74.885 31.8995 74.7347 32.1467 74.6493C32.4241 74.5503 32.7177 74.5012 33.0132 74.5046C33.3608 74.4962 33.7059 74.5631 34.0236 74.7002C34.2934 74.82 34.5296 75.0011 34.7124 75.2281C34.7395 75.2598 34.7596 75.2965 34.7714 75.3361C34.7833 75.3756 34.7866 75.4171 34.7813 75.4579C34.7748 75.4986 34.7591 75.5373 34.7352 75.5712C34.7114 75.6052 34.6801 75.6335 34.6435 75.6542C34.5706 75.6943 34.4854 75.7078 34.4032 75.6924C34.3134 75.6787 34.2314 75.6351 34.171 75.5691C34.034 75.4108 33.8599 75.2867 33.6634 75.2074C33.4515 75.127 33.2254 75.0879 32.9981 75.0921C32.6766 75.0921 32.4199 75.156 32.228 75.2837C32.0352 75.4117 31.9394 75.5718 31.9394 75.7648C31.9364 75.8867 31.9746 76.0063 32.0482 76.1051C32.1484 76.221 32.2784 76.3091 32.425 76.3603C32.666 76.4509 32.917 76.5139 33.173 76.5479C33.6111 76.6162 33.9568 76.717 34.2103 76.8501C34.4319 76.9551 34.6197 77.1173 34.753 77.319C34.8605 77.4956 34.9164 77.6973 34.9149 77.9025C34.9194 78.1564 34.8346 78.4041 34.6745 78.6046C34.4993 78.8154 34.2697 78.9772 34.0092 79.0736C33.698 79.1922 33.3659 79.2498 33.0318 79.2431Z" fill="white"/>
<path d="M35.771 75.2837C35.731 75.285 35.6911 75.2785 35.6536 75.2647C35.6161 75.2509 35.5818 75.2301 35.5527 75.2033C35.5243 75.1778 35.5018 75.1466 35.4866 75.112C35.4714 75.0774 35.4639 75.04 35.4645 75.0024C35.4632 74.9635 35.4704 74.9249 35.4856 74.889C35.5008 74.853 35.5236 74.8207 35.5527 74.794C35.5817 74.7671 35.616 74.7461 35.6535 74.7321C35.691 74.7182 35.7309 74.7117 35.771 74.7129H38.0033C38.0434 74.7117 38.0834 74.7182 38.1209 74.7321C38.1584 74.7461 38.1926 74.7671 38.2217 74.794C38.2507 74.8207 38.2736 74.853 38.2888 74.889C38.304 74.9249 38.3112 74.9635 38.3098 75.0024C38.3105 75.04 38.303 75.0774 38.2878 75.112C38.2726 75.1466 38.2501 75.1778 38.2217 75.2033C38.1925 75.2301 38.1582 75.2509 38.1207 75.2647C38.0833 75.2785 38.0434 75.285 38.0033 75.2837H35.771ZM37.9503 79.2002C37.6642 79.2055 37.3822 79.134 37.1352 78.9936C36.8881 78.8532 36.6857 78.6493 36.55 78.4043C36.4079 78.1436 36.3367 77.8519 36.3434 77.5568V73.3945C36.3406 73.3063 36.3738 73.2206 36.4357 73.156C36.4668 73.1249 36.5042 73.1005 36.5457 73.0845C36.5871 73.0685 36.6315 73.0611 36.6761 73.0629C36.7219 73.0607 36.7677 73.0678 36.8105 73.0839C36.8533 73.0999 36.8922 73.1245 36.9246 73.1561C36.9571 73.1877 36.9824 73.2255 36.9989 73.2671C37.0154 73.3088 37.0227 73.3533 37.0204 73.3979V77.5609C37.0096 77.822 37.1037 78.0769 37.2829 78.2717C37.368 78.3624 37.4722 78.434 37.5885 78.4818C37.7048 78.5296 37.8303 78.5523 37.9565 78.5483H38.1934C38.236 78.547 38.2784 78.5547 38.3177 78.5709C38.3569 78.5871 38.3921 78.6114 38.4207 78.6421C38.4803 78.7077 38.5117 78.7931 38.5082 78.8806C38.5098 78.9248 38.5012 78.9688 38.4829 79.0092C38.4647 79.0497 38.4373 79.0857 38.4028 79.1144C38.33 79.1753 38.2363 79.2073 38.1404 79.2042L37.9503 79.2002Z" fill="white"/>
<path d="M40.0689 73.6584C40.007 73.6595 39.9455 73.6481 39.8883 73.6251C39.8311 73.602 39.7793 73.5678 39.7363 73.5244C39.6909 73.4808 39.6553 73.4285 39.6316 73.3709C39.6079 73.3133 39.5966 73.2515 39.5985 73.1895C39.5957 73.1267 39.6071 73.0641 39.6322 73.0062C39.6572 72.9483 39.6951 72.8964 39.7432 72.8545C39.8357 72.7739 39.9558 72.73 40.08 72.7312C40.2015 72.731 40.3186 72.775 40.4085 72.8545C40.4566 72.8964 40.4945 72.9483 40.5195 73.0062C40.5445 73.0641 40.556 73.1267 40.5531 73.1895C40.5536 73.2512 40.5414 73.3124 40.5174 73.3695C40.4933 73.4265 40.4578 73.4784 40.413 73.5221C40.3681 73.5657 40.3148 73.6002 40.2561 73.6236C40.1974 73.647 40.1345 73.6589 40.071 73.6584H40.0689ZM40.0772 79.2008C40.0312 79.2043 39.985 79.198 39.9418 79.1823C39.8986 79.1667 39.8594 79.1421 39.8269 79.1102C39.7945 79.0783 39.7696 79.0399 39.7539 78.9977C39.7382 78.9555 39.7322 78.9105 39.7363 78.8658V74.873C39.732 74.8283 39.7378 74.7832 39.7534 74.7409C39.769 74.6986 39.7939 74.6601 39.8264 74.6282C39.8589 74.5962 39.8982 74.5716 39.9415 74.556C39.9849 74.5405 40.0312 74.5343 40.0772 74.538C40.1215 74.5362 40.1657 74.5431 40.2072 74.5584C40.2486 74.5737 40.2864 74.5971 40.3183 74.6271C40.3497 74.6594 40.374 74.6976 40.3897 74.7392C40.4054 74.7809 40.4123 74.8253 40.4099 74.8697V78.8625C40.4124 78.9069 40.4056 78.9513 40.3899 78.993C40.3741 79.0347 40.3498 79.0728 40.3183 79.105C40.287 79.1362 40.2495 79.1608 40.208 79.1773C40.1665 79.1938 40.122 79.2018 40.0772 79.2008Z" fill="white"/>
<path d="M44.2608 79.2432C43.8296 79.2508 43.4044 79.1436 43.0314 78.933C42.6759 78.7289 42.3828 78.4364 42.1821 78.0855C41.9723 77.7168 41.8652 77.3011 41.8715 76.8797C41.864 76.4558 41.9663 76.037 42.169 75.6617C42.3589 75.3137 42.6409 75.0213 42.9859 74.8149C43.3445 74.604 43.7572 74.4962 44.1761 74.5041C44.5156 74.4997 44.852 74.5683 45.1611 74.705C45.4698 74.8477 45.7408 75.0574 45.9531 75.318C45.9825 75.3457 46.0042 75.38 46.0162 75.418C46.0283 75.4559 46.0303 75.4962 46.022 75.5351C46.0001 75.6179 45.947 75.6896 45.8732 75.7361C45.8429 75.7582 45.808 75.7739 45.771 75.7819C45.7339 75.79 45.6955 75.7904 45.6583 75.783C45.5763 75.7674 45.5028 75.7234 45.4517 75.659C45.295 75.4788 45.099 75.3348 44.8778 75.2377C44.6566 75.1406 44.416 75.0927 44.1734 75.0976C43.8693 75.0915 43.57 75.1713 43.3117 75.3274C43.0628 75.4812 42.8628 75.6992 42.7338 75.9572C42.5919 76.2438 42.5211 76.5589 42.5272 76.877C42.5214 77.1934 42.5967 77.5063 42.7462 77.7874C42.8865 78.0488 43.0987 78.2671 43.3592 78.4178C43.6321 78.5735 43.9438 78.653 44.2601 78.6476C44.4724 78.6498 44.6837 78.6195 44.8862 78.5579C45.072 78.5005 45.2434 78.4063 45.3897 78.2812C45.4505 78.2284 45.527 78.1958 45.6081 78.1881C45.6833 78.1831 45.7576 78.2071 45.8147 78.255C45.8801 78.3092 45.9224 78.3852 45.9332 78.4681C45.9373 78.5057 45.9318 78.5437 45.9173 78.5787C45.9028 78.6138 45.8796 78.6448 45.8498 78.6691C45.4269 79.0523 44.8973 79.2437 44.2608 79.2432Z" fill="white"/>
<path d="M49.005 79.2431C48.6562 79.2426 48.31 79.1851 47.9808 79.0729C47.6658 78.9746 47.3823 78.7987 47.1578 78.5624C47.1274 78.5325 47.1046 78.4963 47.091 78.4564C47.0774 78.4166 47.0733 78.3742 47.0792 78.3326C47.0922 78.245 47.1393 78.1657 47.2108 78.1109C47.2806 78.0588 47.3681 78.0343 47.4557 78.0423C47.5433 78.0502 47.6246 78.09 47.6833 78.1538C47.8337 78.3196 48.0249 78.4455 48.2391 78.5196C48.4843 78.6073 48.7438 78.6507 49.005 78.6475C49.4367 78.6475 49.7487 78.5752 49.9411 78.4304C50.029 78.3715 50.1017 78.2935 50.1533 78.2026C50.205 78.1117 50.2342 78.0103 50.2386 77.9066C50.2386 77.702 50.1394 77.5332 49.9411 77.4001C49.7427 77.267 49.416 77.1645 48.961 77.0926C48.3714 77.0033 47.9395 76.8445 47.6654 76.6163C47.3912 76.388 47.2535 76.1183 47.2521 75.807C47.2427 75.5465 47.3261 75.2909 47.4884 75.0834C47.6536 74.8853 47.8716 74.7351 48.1186 74.6493C48.396 74.5503 48.6896 74.5013 48.9851 74.5046C49.3328 74.4962 49.6782 74.563 49.9962 74.7002C50.2658 74.8203 50.5019 75.0013 50.685 75.2281C50.712 75.2598 50.7321 75.2965 50.744 75.3361C50.7558 75.3756 50.7592 75.4171 50.7538 75.4579C50.7472 75.4985 50.7314 75.5372 50.7076 75.5711C50.6838 75.6051 50.6525 75.6334 50.6161 75.6542C50.5431 75.6942 50.4579 75.7077 50.3757 75.6924C50.286 75.6787 50.2039 75.6352 50.1436 75.5691C50.0065 75.4108 49.8325 75.2868 49.636 75.2074C49.424 75.1271 49.198 75.0879 48.9706 75.0921C48.6492 75.0921 48.3925 75.156 48.2006 75.2838C48.0086 75.4115 47.9122 75.5718 47.9113 75.7648C47.9085 75.8868 47.947 76.0064 48.0208 76.1051C48.121 76.2211 48.251 76.3091 48.3975 76.3603C48.6385 76.451 48.8896 76.5139 49.1455 76.5479C49.5827 76.6163 49.9284 76.717 50.1828 76.8501C50.4044 76.9553 50.5921 77.1175 50.7256 77.319C50.8326 77.4958 50.8885 77.6974 50.8874 77.9025C50.8917 78.1564 50.8066 78.4041 50.6464 78.6046C50.4714 78.8154 50.242 78.9772 49.9817 79.0736C49.6708 79.192 49.3389 79.2496 49.005 79.2431Z" fill="white"/>
<path d="M39.4552 35.5879C32.1749 35.5879 39.4552 44.1149 39.4552 44.1149C39.4552 44.1149 46.7349 35.5879 39.4552 35.5879ZM39.4552 40.9816C38.9686 40.9817 38.4929 40.8415 38.0882 40.5786C37.6835 40.3157 37.3681 39.942 37.1817 39.5048C36.9954 39.0675 36.9466 38.5863 37.0414 38.1221C37.1363 37.6579 37.3706 37.2314 37.7146 36.8967C38.0587 36.5619 38.497 36.3339 38.9743 36.2416C39.4516 36.1492 39.9463 36.1965 40.3959 36.3776C40.8455 36.5587 41.2298 36.8654 41.5002 37.259C41.7705 37.6525 41.9148 38.1152 41.9148 38.5885C41.9151 38.9029 41.8517 39.2142 41.7282 39.5047C41.6047 39.7952 41.4236 40.0591 41.1952 40.2815C40.9668 40.5039 40.6955 40.6803 40.397 40.8006C40.0984 40.921 39.7784 40.9829 39.4552 40.9829V40.9816Z" fill="white"/>
<path d="M39.4552 36.5232C39.0351 36.5231 38.6243 36.6441 38.2749 36.8711C37.9254 37.0981 37.6531 37.4208 37.4922 37.7983C37.3313 38.1759 37.2892 38.5913 37.3712 38.9922C37.4531 39.393 37.6554 39.7612 37.9525 40.0502C38.2497 40.3392 38.6282 40.536 39.0403 40.6157C39.4524 40.6954 39.8796 40.6544 40.2678 40.498C40.6559 40.3415 40.9877 40.0766 41.221 39.7367C41.4544 39.3969 41.5789 38.9973 41.5787 38.5886C41.5787 38.0408 41.355 37.5155 40.9568 37.1281C40.5585 36.7408 40.0184 36.5232 39.4552 36.5232ZM39.4552 40.3217C39.1029 40.3216 38.7584 40.2199 38.4655 40.0293C38.1726 39.8388 37.9443 39.5681 37.8095 39.2514C37.6748 38.9347 37.6396 38.5862 37.7084 38.2501C37.7772 37.9139 37.947 37.6052 38.1962 37.3629C38.4454 37.1206 38.7629 36.9556 39.1086 36.8887C39.4542 36.8219 39.8124 36.8563 40.138 36.9875C40.4635 37.1187 40.7418 37.3408 40.9375 37.6258C41.1333 37.9108 41.2378 38.2459 41.2378 38.5886C41.2376 39.0483 41.0497 39.4892 40.7154 39.8142C40.3812 40.1392 39.9279 40.3217 39.4552 40.3217Z" fill="white"/>
<path d="M40.2811 45.7798C40.2811 45.9388 40.2326 46.0942 40.1418 46.2264C40.051 46.3586 39.9219 46.4616 39.7709 46.5225C39.6198 46.5833 39.4537 46.5993 39.2933 46.5682C39.133 46.5372 38.9857 46.4606 38.8701 46.3482C38.7545 46.2358 38.6758 46.0925 38.6439 45.9366C38.612 45.7807 38.6284 45.619 38.691 45.4721C38.7535 45.3252 38.8595 45.1997 38.9954 45.1113C39.1313 45.023 39.2911 44.9758 39.4546 44.9758C39.6738 44.9758 39.884 45.0605 40.039 45.2113C40.194 45.3621 40.2811 45.5665 40.2811 45.7798Z" fill="white"/>
<path d="M32.9422 37.9259C33.3218 37.5338 33.5887 37.0514 33.7161 36.5272C33.8435 36.003 33.827 35.4554 33.6682 34.9394L30.3696 24.2284C30.2569 23.8629 30.2441 23.4752 30.3325 23.1035C30.4209 22.7317 30.6075 22.3888 30.8738 22.1087L33.8486 18.9761C34.5902 18.1957 35.1409 17.2625 35.4597 16.2461L35.6663 15.5862C35.704 15.4672 35.7067 15.3404 35.6739 15.22C35.6412 15.0997 35.5743 14.9907 35.481 14.9056C35.3877 14.8204 35.2716 14.7624 35.1461 14.7382C35.0205 14.7141 34.8905 14.7247 34.7709 14.7689L34.1062 15.0094C33.0827 15.3808 32.1584 15.9718 31.4021 16.7385L28.3674 19.8202C28.0959 20.0956 27.7553 20.2973 27.3792 20.4057C27.003 20.514 26.6044 20.5251 26.2225 20.4379L15.0341 17.8821C14.495 17.7588 13.9321 17.7757 13.4018 17.931C12.8715 18.0864 12.3926 18.3747 12.0132 18.7671C16.7747 19.9904 21.6291 22.6473 23.6093 23.8043C23.6725 23.8413 23.7263 23.8917 23.7667 23.9517C23.8071 24.0117 23.8331 24.0798 23.8428 24.1509C23.8525 24.222 23.8455 24.2944 23.8225 24.3625C23.7995 24.4307 23.761 24.4929 23.7099 24.5446L22.8737 24.1004C22.6775 23.9956 22.4477 23.9668 22.2305 24.0199C22.0134 24.0729 21.8248 24.2039 21.7028 24.3865L21.023 25.4055C20.931 25.5432 20.8886 25.7067 20.9025 25.8704C20.9169 26.041 20.8702 26.2112 20.7702 26.3521L20.5161 26.7112L20.919 26.4184C21.0442 26.3273 21.1953 26.276 21.3515 26.2717L21.6153 26.2637L22.0383 26.2436L21.3949 26.8961C20.9818 27.3155 20.6249 27.7842 20.3329 28.2909L18.8644 30.8407L15.7725 29.5678C15.4507 29.436 15.0926 29.4139 14.7563 29.505C14.42 29.596 14.1251 29.795 13.9197 30.0696L13.2798 30.9244L17.7603 32.754L17.3519 33.4642C17.3372 33.4891 17.3315 33.5181 17.3358 33.5465C17.3402 33.5749 17.3542 33.6011 17.3757 33.6208C17.3971 33.6405 17.4248 33.6527 17.4542 33.6552C17.4836 33.6578 17.5131 33.6507 17.5378 33.635L18.2417 33.1948L20.39 37.4322L21.2351 36.7536C21.5029 36.5386 21.6886 36.2422 21.7623 35.9122C21.836 35.5822 21.7934 35.2377 21.6415 34.934L20.1676 31.9863L22.6671 30.426C23.1695 30.112 23.629 29.7371 24.0343 29.3105L24.6652 28.646L24.67 29.058L24.6783 29.3146C24.6832 29.4666 24.6397 29.6163 24.5536 29.7433L24.2781 30.1527L24.6315 29.8847C24.7701 29.7794 24.9419 29.724 25.1178 29.7279C25.2866 29.7314 25.4518 29.6802 25.5875 29.5825L26.5931 28.857C26.7731 28.7274 26.8961 28.5364 26.9374 28.3223C26.9786 28.1082 26.9351 27.8869 26.8156 27.7027L26.3066 26.9182C26.3564 26.8653 26.4179 26.824 26.4864 26.7975C26.5549 26.771 26.6287 26.7598 26.7023 26.7649C26.7759 26.77 26.8473 26.7912 26.9113 26.8269C26.9753 26.8626 27.0302 26.9119 27.0718 26.9711C28.3777 28.8255 31.3987 33.3771 32.9422 37.9259Z" fill="white"/>
<path d="M16.692 45.6101C16.6755 45.665 16.6562 45.7206 16.6349 45.7742C16.6255 45.7973 16.6071 45.8158 16.5838 45.8257C16.5604 45.8356 16.534 45.8361 16.5102 45.8271C16.4984 45.8227 16.4876 45.816 16.4785 45.8075C16.4694 45.799 16.4621 45.7888 16.457 45.7775C16.452 45.7663 16.4492 45.7541 16.449 45.7418C16.4488 45.7295 16.4511 45.7173 16.4558 45.7059C16.5295 45.5233 16.5722 45.3303 16.5825 45.1344C16.5831 45.1222 16.5861 45.1102 16.5914 45.0991C16.5967 45.088 16.6042 45.078 16.6135 45.0698C16.6228 45.0615 16.6336 45.0551 16.6454 45.0509C16.6573 45.0467 16.6698 45.0448 16.6824 45.0453C16.695 45.0459 16.7073 45.0488 16.7187 45.054C16.7301 45.0591 16.7404 45.0664 16.7489 45.0754C16.7574 45.0845 16.764 45.095 16.7683 45.1065C16.7726 45.118 16.7745 45.1302 16.774 45.1425C16.7665 45.301 16.739 45.4581 16.692 45.6101ZM16.3222 46.3015C16.3188 46.3129 16.3132 46.3236 16.3056 46.3329C16.1697 46.5034 16.007 46.652 15.8235 46.7731C15.8131 46.7799 15.8013 46.7847 15.789 46.7871C15.7767 46.7895 15.764 46.7895 15.7516 46.7871C15.7393 46.7848 15.7275 46.7801 15.7171 46.7733C15.7066 46.7665 15.6976 46.7578 15.6906 46.7476C15.6836 46.7375 15.6787 46.7261 15.6762 46.7141C15.6737 46.7021 15.6737 46.6897 15.6761 46.6777C15.6786 46.6657 15.6834 46.6543 15.6904 46.6441C15.6973 46.6339 15.7063 46.6252 15.7167 46.6183C15.8844 46.5076 16.0332 46.372 16.1576 46.2164C16.1655 46.2065 16.1754 46.1982 16.1866 46.192C16.1979 46.1859 16.2103 46.182 16.2231 46.1805C16.2359 46.1791 16.2489 46.1802 16.2613 46.1837C16.2737 46.1872 16.2853 46.1931 16.2953 46.201C16.3095 46.2132 16.3197 46.2293 16.3245 46.2472C16.3293 46.2651 16.3285 46.284 16.3222 46.3015ZM16.681 44.5596C16.6765 44.574 16.6685 44.587 16.6577 44.5978C16.647 44.6085 16.6337 44.6166 16.619 44.6213C16.6071 44.6252 16.5945 44.6269 16.5819 44.626C16.5693 44.6252 16.557 44.622 16.5457 44.6165C16.5344 44.611 16.5244 44.6034 16.5162 44.5941C16.5079 44.5848 16.5017 44.574 16.4978 44.5623C16.4342 44.3758 16.3412 44.2 16.2223 44.0411C16.2149 44.0312 16.2095 44.02 16.2066 44.0081C16.2036 43.9962 16.2031 43.9838 16.2051 43.9717C16.207 43.9596 16.2114 43.948 16.218 43.9375C16.2245 43.9271 16.2331 43.918 16.2433 43.9108C16.2535 43.9036 16.265 43.8984 16.2773 43.8955C16.2895 43.8926 16.3022 43.8921 16.3146 43.894C16.3271 43.8959 16.339 43.9002 16.3498 43.9066C16.3605 43.9129 16.3699 43.9213 16.3773 43.9312C16.5088 44.1054 16.6117 44.2984 16.6824 44.5033C16.6868 44.5208 16.6863 44.5391 16.681 44.5563V44.5596ZM15.2801 46.9714C15.2759 46.9876 15.2672 47.0023 15.2551 47.0141C15.243 47.0259 15.2278 47.0343 15.2112 47.0384C15.0189 47.08 14.8203 47.0859 14.6257 47.0558C14.5968 47.0511 14.5686 47.0464 14.5403 47.0404C14.528 47.0379 14.5163 47.033 14.5058 47.0261C14.4954 47.0192 14.4865 47.0104 14.4796 47.0001C14.4727 46.9898 14.4679 46.9784 14.4656 46.9663C14.4632 46.9543 14.4634 46.9419 14.4659 46.9299C14.4685 46.9179 14.4735 46.9065 14.4806 46.8963C14.4877 46.8862 14.4968 46.8775 14.5073 46.8708C14.5179 46.8641 14.5297 46.8594 14.5421 46.8572C14.5545 46.8549 14.5672 46.855 14.5796 46.8575L14.656 46.8716C14.8268 46.8978 15.0011 46.8926 15.1699 46.8562C15.1822 46.8535 15.1949 46.8532 15.2073 46.8554C15.2197 46.8575 15.2316 46.862 15.2422 46.8686C15.2528 46.8752 15.262 46.8837 15.2692 46.8938C15.2764 46.9039 15.2815 46.9152 15.2842 46.9272C15.2862 46.9409 15.2848 46.955 15.2801 46.968V46.9714ZM15.9482 43.5694C15.9445 43.5808 15.9389 43.5914 15.9316 43.6009C15.9237 43.6109 15.9138 43.6192 15.9025 43.6253C15.8913 43.6315 15.8788 43.6353 15.866 43.6367C15.8531 43.6381 15.8401 43.6369 15.8277 43.6333C15.8153 43.6297 15.8038 43.6237 15.7939 43.6157C15.6334 43.4921 15.4584 43.3875 15.2725 43.3042C15.2513 43.2925 15.2355 43.2736 15.228 43.2511C15.2206 43.2286 15.2222 43.2042 15.2325 43.1828C15.2427 43.1614 15.2609 43.1446 15.2834 43.1356C15.3059 43.1267 15.331 43.1264 15.3538 43.1347C15.5531 43.2246 15.7408 43.337 15.913 43.4696C15.9279 43.4806 15.9392 43.4956 15.9455 43.5128C15.9517 43.5299 15.9526 43.5484 15.9482 43.5661V43.5694ZM10.9773 57.2811C10.9704 57.3049 10.954 57.325 10.9318 57.3371C10.9095 57.3492 10.8833 57.3521 10.8588 57.3454C10.8344 57.3386 10.8136 57.3227 10.8012 57.3011C10.7888 57.2795 10.7858 57.254 10.7927 57.2302C10.8451 57.0426 10.8926 56.8423 10.9305 56.6346C10.9355 56.6104 10.95 56.589 10.971 56.5751C10.992 56.5612 11.0177 56.5559 11.0427 56.5602C11.0552 56.5625 11.067 56.5671 11.0775 56.5738C11.0881 56.5805 11.0972 56.5892 11.1043 56.5993C11.1114 56.6095 11.1164 56.6209 11.119 56.6329C11.1215 56.645 11.1216 56.6574 11.1192 56.6694C11.0772 56.8818 11.029 57.0868 10.9752 57.2791L10.9773 57.2811ZM10.7824 57.8699V57.876C10.7064 58.0726 10.6188 58.2647 10.52 58.4515C10.5074 58.472 10.4872 58.4872 10.4635 58.4937C10.4398 58.5003 10.4144 58.4978 10.3926 58.4867C10.3708 58.4757 10.3541 58.4569 10.346 58.4343C10.3379 58.4116 10.339 58.3869 10.3491 58.365C10.4447 58.1851 10.5293 57.9999 10.6026 57.8103C10.6117 57.7872 10.6299 57.7685 10.6531 57.7583C10.6763 57.7482 10.7027 57.7473 10.7266 57.7561C10.749 57.7646 10.7672 57.7812 10.7776 57.8023C10.7879 57.8234 10.7896 57.8476 10.7824 57.8699ZM11.2204 56.0678C11.2178 56.0798 11.2128 56.0911 11.2057 56.1012C11.1985 56.1113 11.1894 56.1199 11.1789 56.1266C11.1683 56.1332 11.1565 56.1378 11.1442 56.14C11.1318 56.1422 11.1191 56.142 11.1068 56.1395C11.0945 56.1369 11.0828 56.1321 11.0725 56.1251C11.0621 56.1182 11.0533 56.1093 11.0464 56.0991C11.0396 56.0888 11.0349 56.0773 11.0326 56.0653C11.0303 56.0533 11.0305 56.0409 11.0331 56.029C11.0476 55.9238 11.0606 55.8146 11.073 55.7034C11.0827 55.6096 11.0923 55.5138 11.1013 55.418C11.1054 55.3947 11.1183 55.3738 11.1375 55.3594C11.1567 55.345 11.1808 55.3382 11.205 55.3403C11.2291 55.3424 11.2516 55.3533 11.2679 55.3708C11.2841 55.3883 11.293 55.4111 11.2928 55.4347C11.2838 55.5312 11.2742 55.6283 11.2638 55.7235C11.2514 55.8353 11.2377 55.9466 11.2232 56.0537C11.2226 56.0585 11.2217 56.0632 11.2204 56.0678ZM14.0658 46.7329C14.063 46.7413 14.0593 46.7494 14.0547 46.757C14.0408 46.7777 14.019 46.7922 13.9942 46.7975C13.9693 46.8028 13.9433 46.7983 13.9218 46.7852C13.7358 46.6674 13.5685 46.5238 13.4252 46.3591C13.4104 46.34 13.4037 46.3161 13.4064 46.2923C13.4091 46.2685 13.421 46.2467 13.4398 46.2312C13.4585 46.2157 13.4826 46.2077 13.5072 46.209C13.5318 46.2102 13.5549 46.2205 13.5719 46.2378C13.7025 46.3889 13.8555 46.5203 14.0258 46.6277C14.0432 46.6387 14.0565 46.6549 14.0637 46.6739C14.0709 46.6928 14.0716 46.7135 14.0658 46.7329ZM10.1949 58.9633C10.1915 58.973 10.1869 58.9822 10.1811 58.9908C10.1177 59.0765 10.0516 59.1609 9.98272 59.2413C9.91384 59.3217 9.84014 59.4008 9.76231 59.4758C9.75344 59.4849 9.74275 59.4921 9.73091 59.497C9.71907 59.502 9.70632 59.5045 9.69344 59.5045C9.68055 59.5045 9.6678 59.502 9.65596 59.497C9.64412 59.4921 9.63344 59.4849 9.62456 59.4758C9.6154 59.4671 9.60811 59.4566 9.60314 59.4451C9.59817 59.4336 9.59562 59.4213 9.59562 59.4088C9.59562 59.3963 9.59817 59.384 9.60314 59.3725C9.60811 59.361 9.6154 59.3505 9.62456 59.3418C9.69718 59.2713 9.76615 59.1973 9.83119 59.1201C9.89662 59.0437 9.95999 58.9626 10.0199 58.8802C10.0332 58.8623 10.0526 58.8495 10.0746 58.8441C10.0967 58.8387 10.12 58.841 10.1404 58.8507C10.1609 58.8604 10.1771 58.8769 10.1863 58.8971C10.1955 58.9173 10.1971 58.94 10.1907 58.9613L10.1949 58.9633ZM11.3327 54.8358C11.3266 54.8583 11.3121 54.8777 11.292 54.8903C11.272 54.9029 11.2478 54.9077 11.2242 54.9039C11.2007 54.9 11.1795 54.8877 11.1647 54.8694C11.15 54.8511 11.1429 54.8281 11.1447 54.805C11.155 54.604 11.1619 54.3943 11.164 54.19C11.166 54.1666 11.177 54.1447 11.1948 54.1288C11.2126 54.1129 11.2359 54.1041 11.26 54.1041C11.2842 54.1041 11.3075 54.1129 11.3253 54.1288C11.3431 54.1447 11.3541 54.1666 11.3561 54.19C11.3561 54.3963 11.3472 54.6053 11.3368 54.8117C11.3364 54.8198 11.335 54.8279 11.3327 54.8358ZM14.8062 43.0449C14.7998 43.0679 14.7847 43.0877 14.7638 43.1001C14.7429 43.1126 14.7179 43.1168 14.6939 43.1119C14.4939 43.0705 14.2895 43.0521 14.085 43.0569C14.0596 43.0575 14.0349 43.0482 14.0165 43.0311C13.998 43.0141 13.9873 42.9906 13.9865 42.9658C13.9861 42.9536 13.9881 42.9414 13.9926 42.9299C13.997 42.9184 14.0038 42.9079 14.0124 42.899C14.0211 42.8901 14.0315 42.8829 14.043 42.878C14.0545 42.873 14.0669 42.8703 14.0795 42.87C14.2993 42.8647 14.5189 42.8847 14.7339 42.9297C14.7462 42.9321 14.7579 42.937 14.7683 42.9439C14.7788 42.9508 14.7876 42.9596 14.7945 42.9699C14.8014 42.9802 14.8061 42.9917 14.8083 43.0038C14.8105 43.0158 14.8103 43.0282 14.8076 43.0402C14.8074 43.0425 14.8069 43.0447 14.8062 43.0469V43.0449ZM11.3479 53.5991C11.3417 53.6208 11.3277 53.6395 11.3085 53.652C11.2892 53.6644 11.266 53.6696 11.2431 53.6667C11.2201 53.6637 11.1991 53.6528 11.1838 53.636C11.1685 53.6191 11.16 53.5975 11.1598 53.575C11.1543 53.3706 11.1447 53.1636 11.1309 52.9606C11.1293 52.948 11.1304 52.9351 11.1342 52.9228C11.1379 52.9106 11.1442 52.8992 11.1526 52.8894C11.161 52.8796 11.1714 52.8715 11.1831 52.8658C11.1948 52.86 11.2077 52.8566 11.2208 52.8558C11.2339 52.8551 11.247 52.8569 11.2594 52.8612C11.2717 52.8656 11.2831 52.8723 11.2926 52.8811C11.3022 52.8898 11.3099 52.9004 11.3151 52.9121C11.3203 52.9238 11.323 52.9365 11.3231 52.9493C11.3362 53.1543 11.3458 53.3633 11.3513 53.5703C11.3519 53.58 11.3508 53.5898 11.3479 53.5991ZM9.29808 59.8295C9.29147 59.8499 9.27816 59.8675 9.2602 59.8798C9.08067 59.9998 8.8905 60.104 8.69196 60.1913C8.6701 60.1961 8.6472 60.1933 8.6272 60.1835C8.6072 60.1736 8.59136 60.1573 8.58239 60.1373C8.57343 60.1173 8.5719 60.0949 8.57807 60.074C8.58423 60.053 8.59772 60.0348 8.6162 60.0225C8.80433 59.9403 8.98438 59.8416 9.15413 59.7277C9.16451 59.7207 9.17622 59.7158 9.18857 59.7132C9.20092 59.7106 9.21368 59.7104 9.2261 59.7127C9.23852 59.7149 9.25036 59.7195 9.26094 59.7262C9.27153 59.733 9.28064 59.7416 9.28775 59.7518C9.29539 59.7635 9.30028 59.7768 9.30207 59.7905C9.30385 59.8043 9.30249 59.8183 9.29808 59.8315V59.8295ZM11.2666 52.3651C11.2601 52.3857 11.2465 52.4035 11.2281 52.4155C11.2097 52.4276 11.1876 52.4331 11.1656 52.4311C11.1435 52.4291 11.1228 52.4198 11.1069 52.4047C11.0911 52.3897 11.0811 52.3697 11.0786 52.3483C11.071 52.2726 11.062 52.1969 11.0531 52.1212C11.0386 51.9979 11.0221 51.8727 11.0028 51.7373C10.9993 51.7128 11.006 51.688 11.0214 51.6682C11.0367 51.6485 11.0595 51.6355 11.0848 51.6322C11.11 51.6288 11.1355 51.6353 11.1558 51.6502C11.1761 51.6652 11.1894 51.6874 11.1929 51.7119C11.2122 51.8459 11.2287 51.9752 11.2439 52.0998C11.2528 52.1761 11.2618 52.2525 11.2693 52.3289C11.2709 52.341 11.27 52.3533 11.2666 52.3651ZM13.2434 45.8064C13.2377 45.8243 13.2266 45.8401 13.2116 45.8518C13.1965 45.8635 13.1782 45.8706 13.1591 45.8721C13.1399 45.8736 13.1207 45.8695 13.1039 45.8603C13.0871 45.8511 13.0736 45.8372 13.065 45.8204C13.0077 45.707 12.9589 45.5897 12.919 45.4694C12.8921 45.3883 12.868 45.3039 12.8501 45.2182C12.8464 45.1948 12.8519 45.1709 12.8656 45.1513C12.8792 45.1318 12.8999 45.1179 12.9236 45.1126C12.9473 45.1073 12.9722 45.1108 12.9933 45.1226C13.0144 45.1343 13.0302 45.1534 13.0374 45.176C13.0567 45.2564 13.0794 45.3361 13.1063 45.4124C13.1442 45.5242 13.1902 45.6333 13.2441 45.7387C13.2524 45.7606 13.2521 45.7847 13.2434 45.8064ZM16.4592 34.8288C16.4562 34.8386 16.4515 34.8479 16.4455 34.8562C16.3235 35.0224 16.203 35.1912 16.0873 35.3634C16.0732 35.384 16.0513 35.3983 16.0264 35.4032C16.0015 35.4081 15.9756 35.4032 15.9544 35.3895C15.9332 35.3758 15.9184 35.3545 15.9134 35.3303C15.9084 35.306 15.9134 35.2808 15.9275 35.2602C16.0446 35.088 16.1658 34.9159 16.2891 34.7477C16.3021 34.7293 16.3215 34.716 16.3437 34.7103C16.3659 34.7047 16.3895 34.7069 16.4102 34.7168C16.4308 34.7266 16.4471 34.7433 16.4561 34.7639C16.4651 34.7845 16.4662 34.8075 16.4592 34.8288ZM11.0958 51.1397C11.0897 51.1602 11.0767 51.1779 11.0588 51.1901C11.0409 51.2023 11.0192 51.2082 10.9975 51.2068C10.9757 51.2054 10.955 51.1968 10.9389 51.1824C10.9229 51.168 10.9124 51.1487 10.9091 51.1277C10.8788 50.9408 10.8464 50.7539 10.8148 50.567L10.8065 50.518C10.8043 50.5059 10.8046 50.4935 10.8074 50.4816C10.8102 50.4696 10.8154 50.4582 10.8227 50.4482C10.83 50.4382 10.8392 50.4297 10.8499 50.4231C10.8606 50.4166 10.8726 50.4122 10.885 50.4102C10.9102 50.4063 10.9359 50.4122 10.9567 50.4266C10.9774 50.441 10.9915 50.4628 10.9959 50.4872L11.0042 50.5361C11.0359 50.7237 11.0682 50.9106 11.0985 51.0982C11.1011 51.1121 11.1001 51.1263 11.0958 51.1397ZM15.7574 35.8618C15.7552 35.8699 15.7518 35.8776 15.7471 35.8846C15.6368 36.0581 15.528 36.2363 15.4233 36.4132C15.4107 36.4347 15.3899 36.4504 15.3653 36.457C15.3408 36.4635 15.3146 36.4603 15.2925 36.448C15.2704 36.4357 15.2542 36.4155 15.2474 36.3916C15.2407 36.3677 15.244 36.3422 15.2566 36.3207C15.3627 36.1412 15.4722 35.9616 15.5838 35.7848C15.5958 35.7651 15.6148 35.7505 15.6372 35.7436C15.6596 35.7367 15.6838 35.738 15.7053 35.7474C15.7267 35.7567 15.7439 35.7734 15.7535 35.7943C15.7631 35.8151 15.7645 35.8387 15.7574 35.8605V35.8618ZM13.5471 43.0811C13.5424 43.0966 13.5335 43.1107 13.5214 43.1219C13.5093 43.133 13.4944 43.1409 13.4782 43.1447C13.3191 43.1866 13.1638 43.2413 13.014 43.3082C13.014 43.3276 13.0085 43.347 13.0064 43.3665C13.0027 43.3893 12.9905 43.4099 12.9721 43.4245C12.9537 43.4391 12.9304 43.4466 12.9067 43.4455C12.883 43.4444 12.8605 43.4349 12.8436 43.4187C12.8266 43.4025 12.8165 43.3808 12.8149 43.3577C12.798 43.3488 12.7843 43.335 12.7757 43.3182C12.7644 43.2963 12.7625 43.2708 12.7703 43.2475C12.7782 43.2242 12.7952 43.2048 12.8177 43.1936L12.8377 43.1836L12.8418 43.1568C12.8618 43.0147 12.8845 42.87 12.9107 42.728C12.9151 42.7037 12.9291 42.682 12.9497 42.6677C12.9702 42.6533 12.9958 42.6473 13.0209 42.651C13.0333 42.6529 13.0453 42.6572 13.056 42.6637C13.0667 42.6701 13.076 42.6786 13.0834 42.6886C13.0908 42.6985 13.096 42.7098 13.0989 42.7217C13.1018 42.7337 13.1022 42.7461 13.1001 42.7582C13.0815 42.8687 13.0636 42.9806 13.0471 43.0931C13.1721 43.043 13.3002 43.0007 13.4307 42.9665C13.4472 42.9621 13.4646 42.9621 13.4811 42.9664C13.4976 42.9707 13.5126 42.9793 13.5246 42.9912C13.5365 43.0031 13.545 43.0179 13.5491 43.0341C13.5532 43.0502 13.5527 43.0671 13.5478 43.0831L13.5471 43.0811ZM12.9437 44.6152C12.937 44.636 12.9229 44.6538 12.9041 44.6656C12.8853 44.6774 12.8629 44.6824 12.8406 44.6799C12.8184 44.6774 12.7978 44.6674 12.7823 44.6517C12.7668 44.636 12.7574 44.6155 12.7557 44.5938C12.743 44.3843 12.743 44.1742 12.7557 43.9647C12.7572 43.94 12.7687 43.9169 12.7877 43.9004C12.8066 43.884 12.8316 43.8755 12.857 43.877C12.8824 43.8784 12.9061 43.8895 12.923 43.908C12.94 43.9265 12.9487 43.9507 12.9472 43.9754C12.9351 44.1776 12.9351 44.3802 12.9472 44.5824C12.9478 44.5934 12.9466 44.6045 12.9437 44.6152ZM15.1244 36.9351C15.1227 36.9411 15.1204 36.9469 15.1175 36.9525C15.019 37.1327 14.9219 37.3169 14.8296 37.5005C14.8185 37.5227 14.7987 37.5397 14.7747 37.5477C14.7507 37.5558 14.7243 37.5542 14.7015 37.5434C14.6787 37.5325 14.6612 37.5133 14.6529 37.4899C14.6447 37.4666 14.6463 37.441 14.6574 37.4187C14.7504 37.2332 14.8482 37.0469 14.9474 36.8647C14.9578 36.8431 14.9764 36.8263 14.9993 36.8176C15.0221 36.8089 15.0475 36.8091 15.0702 36.8182C15.0929 36.8272 15.1112 36.8443 15.1213 36.8661C15.1314 36.8878 15.1325 36.9125 15.1244 36.9351ZM14.5651 38.0458C14.5638 38.0499 14.5622 38.054 14.5603 38.0579C14.4742 38.2434 14.3902 38.4337 14.3096 38.6226C14.3048 38.6339 14.2978 38.6442 14.2889 38.6529C14.28 38.6615 14.2695 38.6684 14.2578 38.6731C14.2462 38.6778 14.2338 38.6802 14.2212 38.6802C14.2086 38.6803 14.1962 38.6779 14.1846 38.6732C14.1729 38.6685 14.1624 38.6617 14.1535 38.6531C14.1446 38.6444 14.1375 38.6342 14.1327 38.6229C14.1279 38.6116 14.1254 38.5995 14.1253 38.5873C14.1253 38.575 14.1278 38.5629 14.1326 38.5516C14.2132 38.3607 14.2986 38.1684 14.3853 37.9808C14.3955 37.9591 14.4138 37.9419 14.4365 37.9328C14.4593 37.9237 14.4847 37.9234 14.5077 37.932C14.5306 37.9405 14.5494 37.9573 14.56 37.9788C14.5707 38.0003 14.5725 38.025 14.5651 38.0478V38.0458ZM10.8891 49.9185C10.8844 49.9357 10.8746 49.9512 10.8608 49.9631C10.8471 49.975 10.8302 49.9828 10.812 49.9854C10.7996 49.9874 10.7869 49.9869 10.7746 49.984C10.7624 49.9811 10.7508 49.9759 10.7407 49.9687C10.7305 49.9615 10.7219 49.9524 10.7153 49.9419C10.7088 49.9315 10.7044 49.9198 10.7025 49.9077C10.6653 49.68 10.6336 49.479 10.6102 49.2941C10.6085 49.2819 10.6093 49.2696 10.6125 49.2577C10.6158 49.2459 10.6214 49.2348 10.629 49.2251C10.6367 49.2153 10.6462 49.2072 10.6571 49.201C10.668 49.1949 10.68 49.1909 10.6925 49.1892C10.705 49.1876 10.7177 49.1884 10.7298 49.1915C10.742 49.1947 10.7534 49.2001 10.7634 49.2075C10.7735 49.215 10.7819 49.2243 10.7882 49.2348C10.7945 49.2454 10.7986 49.2571 10.8003 49.2693C10.8258 49.4528 10.8554 49.6525 10.8919 49.8789C10.8942 49.8921 10.8933 49.9057 10.8891 49.9185ZM13.2096 42.1606C13.2035 42.1846 13.1878 42.2052 13.1661 42.2179C13.1443 42.2307 13.1182 42.2345 13.0936 42.2286C13.0689 42.2226 13.0477 42.2074 13.0346 42.1862C13.0215 42.165 13.0175 42.1397 13.0236 42.1157C13.0643 41.9147 13.1097 41.7097 13.158 41.5081C13.1608 41.4961 13.166 41.4849 13.1734 41.4749C13.1807 41.465 13.19 41.4565 13.2006 41.45C13.2113 41.4436 13.2232 41.4392 13.2356 41.4372C13.248 41.4352 13.2607 41.4356 13.273 41.4384C13.2852 41.4411 13.2968 41.4462 13.307 41.4534C13.3173 41.4605 13.326 41.4695 13.3326 41.4799C13.3393 41.4903 13.3438 41.5018 13.3458 41.5139C13.3479 41.526 13.3475 41.5383 13.3446 41.5503C13.2971 41.7512 13.2523 41.9522 13.2117 42.1532L13.2096 42.1606ZM14.0795 39.1894V39.1954C14.0058 39.387 13.9342 39.582 13.8674 39.7756C13.8592 39.799 13.8417 39.8184 13.8188 39.8293C13.796 39.8402 13.7696 39.8419 13.7455 39.8339C13.7214 39.8259 13.7015 39.8089 13.6903 39.7867C13.679 39.7644 13.6773 39.7388 13.6856 39.7153C13.7544 39.5203 13.8233 39.3234 13.8998 39.1298C13.9079 39.1063 13.9253 39.087 13.9481 39.076C13.9709 39.065 13.9972 39.0632 14.0213 39.0712C14.0454 39.0791 14.0653 39.096 14.0766 39.1181C14.0879 39.1403 14.0897 39.1659 14.0816 39.1894H14.0795ZM13.4975 40.956C13.4906 40.9798 13.4742 41 13.452 41.012C13.4298 41.0241 13.4035 41.0271 13.3791 41.0203C13.3546 41.0136 13.3339 40.9976 13.3215 40.976C13.3091 40.9544 13.306 40.9289 13.3129 40.9051C13.368 40.7041 13.4266 40.5031 13.4879 40.3075C13.4952 40.2838 13.5119 40.2639 13.5343 40.2521C13.5567 40.2404 13.583 40.2378 13.6074 40.2449C13.6318 40.252 13.6523 40.2682 13.6643 40.29C13.6764 40.3118 13.6791 40.3374 13.6718 40.3611C13.6112 40.5567 13.5526 40.755 13.4982 40.9527L13.4975 40.956ZM12.4162 43.6311C12.4104 43.65 12.3986 43.6667 12.3824 43.6786C12.218 43.8002 12.0641 43.9346 11.9223 44.0806C11.9141 44.0909 11.9037 44.0994 11.8919 44.1056C11.8801 44.1117 11.8671 44.1154 11.8538 44.1164C11.8404 44.1173 11.827 44.1156 11.8144 44.1112C11.8018 44.1068 11.7902 44.0998 11.7806 44.0908C11.7709 44.0818 11.7632 44.071 11.7581 44.0589C11.753 44.0469 11.7506 44.0339 11.751 44.0209C11.7514 44.0079 11.7545 43.9951 11.7603 43.9833C11.7661 43.9716 11.7744 43.9611 11.7845 43.9527C11.933 43.7984 12.0942 43.6563 12.2667 43.5279C12.2829 43.5162 12.3024 43.5098 12.3226 43.5095C12.3427 43.5091 12.3625 43.515 12.379 43.5261C12.3956 43.5373 12.4082 43.5532 12.415 43.5717C12.4217 43.5902 12.4224 43.6102 12.4168 43.6291L12.4162 43.6311ZM10.7245 48.6925C10.719 48.7104 10.7082 48.7264 10.6933 48.7383C10.6785 48.7502 10.6603 48.7576 10.6412 48.7595C10.6287 48.7606 10.616 48.7593 10.604 48.7556C10.592 48.752 10.5809 48.7461 10.5712 48.7382C10.5615 48.7304 10.5536 48.7208 10.5477 48.7099C10.5419 48.6991 10.5383 48.6872 10.5372 48.675L10.5317 48.6168C10.5138 48.4245 10.5007 48.2349 10.4938 48.0527C10.4931 48.0405 10.495 48.0282 10.4993 48.0167C10.5036 48.0052 10.5102 47.9947 10.5187 47.9857C10.5272 47.9767 10.5375 47.9694 10.549 47.9644C10.5604 47.9593 10.5728 47.9565 10.5854 47.9562C10.598 47.9556 10.6106 47.9574 10.6225 47.9615C10.6343 47.9657 10.6452 47.9721 10.6545 47.9804C10.6638 47.9887 10.6713 47.9987 10.6766 48.0098C10.6819 48.021 10.6848 48.033 10.6853 48.0453C10.6922 48.2242 10.7052 48.4111 10.7225 48.6L10.728 48.6576C10.7294 48.6693 10.7285 48.6811 10.7252 48.6925H10.7245ZM10.677 47.4564C10.6703 47.478 10.6558 47.4964 10.6362 47.5083C10.6166 47.5203 10.5933 47.5249 10.5704 47.5214C10.5476 47.5179 10.5268 47.5065 10.512 47.4892C10.4971 47.472 10.4892 47.4501 10.4897 47.4276C10.4959 47.2132 10.5103 47.0029 10.533 46.8026C10.5344 46.7904 10.5383 46.7786 10.5444 46.7679C10.5505 46.7571 10.5587 46.7477 10.5685 46.74C10.5784 46.7323 10.5897 46.7267 10.6018 46.7233C10.6139 46.7199 10.6266 46.7188 10.6391 46.7202C10.6516 46.7215 10.6638 46.7253 10.6748 46.7312C10.6858 46.7371 10.6956 46.7451 10.7034 46.7547C10.7113 46.7643 10.7172 46.7753 10.7207 46.787C10.7242 46.7988 10.7252 46.8112 10.7238 46.8233C10.7018 47.0183 10.6873 47.2253 10.6811 47.433C10.6814 47.4409 10.6803 47.4489 10.6777 47.4564H10.677ZM11.5455 44.5261C11.5429 44.5355 11.5384 44.5444 11.5325 44.5523C11.4149 44.7185 11.3102 44.8929 11.2191 45.0741C11.2079 45.0963 11.1882 45.1133 11.1641 45.1214C11.1401 45.1294 11.1138 45.1278 11.091 45.117C11.0681 45.1062 11.0506 45.087 11.0424 45.0636C11.0341 45.0402 11.0357 45.0146 11.0469 44.9924C11.1418 44.8026 11.2514 44.62 11.3747 44.4464C11.3876 44.4279 11.4068 44.4144 11.429 44.4086C11.4512 44.4027 11.4748 44.4048 11.4956 44.4145C11.5163 44.4241 11.5327 44.4407 11.5419 44.4612C11.5511 44.4817 11.5524 44.5048 11.5455 44.5261ZM10.8203 46.2291C10.8141 46.2531 10.7983 46.2737 10.7765 46.2864C10.7546 46.2991 10.7285 46.3028 10.7039 46.2968C10.6792 46.2907 10.658 46.2754 10.645 46.2542C10.6319 46.2329 10.6281 46.2075 10.6343 46.1835C10.6667 46.0335 10.7032 45.8861 10.7486 45.7441C10.7659 45.6878 10.7844 45.6315 10.803 45.5766C10.8071 45.565 10.8134 45.5542 10.8217 45.545C10.83 45.5358 10.8401 45.5282 10.8513 45.5228C10.8626 45.5173 10.8749 45.5141 10.8875 45.5133C10.9001 45.5125 10.9127 45.514 10.9246 45.518C10.9366 45.5219 10.9476 45.528 10.9571 45.5361C10.9666 45.5442 10.9743 45.554 10.9799 45.5649C10.9855 45.5759 10.9888 45.5879 10.9897 45.6001C10.9905 45.6123 10.9889 45.6246 10.9849 45.6362C10.967 45.6891 10.9491 45.7434 10.9325 45.7983C10.8905 45.9323 10.854 46.0777 10.8223 46.2224L10.8203 46.2291Z" fill="white" stroke="white" stroke-width="0.126249" stroke-miterlimit="10"/>
<path d="M17.0371 34.0826C17.0336 34.0938 17.028 34.1042 17.0206 34.1134C16.9552 34.1938 16.8897 34.2762 16.8257 34.358C16.8185 34.3689 16.8091 34.3783 16.798 34.3855C16.7869 34.3928 16.7744 34.3977 16.7613 34.4C16.7481 34.4022 16.7347 34.4018 16.7217 34.3988C16.7087 34.3958 16.6965 34.3901 16.6859 34.3823C16.6753 34.3744 16.6665 34.3645 16.66 34.3531C16.6535 34.3418 16.6495 34.3292 16.6483 34.3163C16.6471 34.3034 16.6486 34.2903 16.6528 34.278C16.657 34.2657 16.6638 34.2544 16.6728 34.2447C16.7375 34.1623 16.8043 34.0793 16.8698 33.9975C16.8838 33.9808 16.9033 33.9694 16.9251 33.965C16.9468 33.9607 16.9694 33.9638 16.9891 33.9738C17.0087 33.9838 17.0242 34.0001 17.033 34.0199C17.0418 34.0397 17.0432 34.0619 17.0371 34.0826Z" fill="white" stroke="white" stroke-width="0.126249" stroke-miterlimit="10"/>
<path d="M20.6697 16.579L21.5651 16.2213C22.5983 15.4763 21.9915 14.9853 21.4356 14.2825C21.8131 13.5201 23.0363 13.5925 23.1906 12.5889C22.4695 12.0684 20.2585 13.5851 20.2289 12.2921C20.2117 11.4386 21.9605 10.2153 22.6658 9.95872C23.3711 9.70213 25.3347 9.66931 26.0201 10.0016C26.5539 10.2609 26.8411 10.7499 26.7433 11.2926C26.6365 11.8841 26.0717 12.1414 25.779 12.6994C26.5057 12.9674 26.8748 12.0811 27.1331 11.6456C27.5636 10.9187 27.9039 11.2142 28.614 10.9482C29.2601 10.7057 29.6685 10.2166 30.3869 10.0425C30.9462 9.90848 31.575 9.78923 32.1467 9.70147C32.7997 9.6003 33.2343 9.92857 33.8321 9.93058C34.742 9.93058 34.4224 8.6376 35.3144 9.29682C35.6312 9.5313 35.3302 9.62576 35.8344 9.81267C36.0486 9.89173 36.5066 9.94666 36.7539 9.99557C37.8828 10.2193 37.3173 9.71821 37.2223 8.99736C37.1017 8.08088 37.765 8.6577 38.3601 8.91563C38.7961 9.10522 38.7989 8.92769 38.9896 9.37454C39.1584 9.76913 38.7995 9.91718 39.2514 10.1878C40.1137 10.7017 40.0931 9.50651 40.0931 9.11326C40.0931 8.44332 40.2308 8.0628 39.5655 7.60657C39.7721 7.43841 39.9705 7.16776 40.0138 6.90447C39.3939 6.60903 39.571 6.14208 39.2472 5.70394C38.7038 4.96701 38.4242 5.6202 37.8573 5.82252C37.2718 6.03154 36.7353 5.58269 36.1705 5.9344C35.5837 6.29952 35.5361 6.83949 34.7785 6.14476C35.1077 5.90895 35.3398 5.4842 35.5451 5.13986C35.3281 4.95131 35.1298 4.74339 34.9528 4.51883C35.5224 3.68877 36.5163 4.23075 37.2133 4.56773C37.9944 4.94558 38.7176 4.38484 39.4429 4.68162C40.1199 4.95763 39.9036 6.18161 41.0188 6.11261C41.6552 6.07308 41.5849 5.76357 41.6387 5.36161C41.6524 5.25442 41.5636 4.93553 41.5581 4.82566C41.5574 4.81428 41.5574 4.80287 41.5581 4.79149C42.2062 5.05477 42.8433 5.34754 43.4729 5.66241C43.3702 6.04427 43.3516 6.57419 43.3351 6.87366C43.322 7.0934 43.4302 7.31582 43.3875 7.5389C43.3392 7.79214 42.9673 7.90469 43.1326 8.20415C43.3881 8.66641 45.4565 8.07017 45.8822 8.03332C46.4222 7.98441 46.7452 7.97503 46.8465 7.65346C48.6412 8.88965 50.2744 10.334 51.7099 11.9545C51.7326 12.2131 51.756 12.4797 51.767 12.7651C51.7905 13.3781 51.7292 13.8772 52.1569 14.4198C52.4042 14.7334 53.4408 15.3765 52.5288 15.8133C51.6865 16.2153 51.8401 15.0764 51.7843 14.7414C51.7051 14.2778 51.1113 13.4337 50.687 14.1083C50.0554 15.1132 52.4303 16.4203 51.2085 17.1807C51.3738 17.5116 51.7326 18.1186 51.3813 18.4448C50.9474 18.8468 50.5183 18.1353 50.1154 18.751C49.5444 19.6219 50.0258 20.9571 51.1348 21.2298C52.3167 21.5178 52.4799 19.7606 53.666 20.3367C54.1337 20.5638 54.3045 20.8512 54.487 21.3999C54.6365 21.8468 54.4622 22.5288 54.9257 22.7673C55.151 22.5341 55.0752 22.2152 55.2054 21.9513C55.4864 22.2501 55.8831 23.0969 55.8811 23.5062C55.8811 24.1259 55.4237 24.7268 56.5168 24.633C56.4686 24.4783 56.545 24.2532 56.534 24.1473C57.4446 24.7409 57.8317 25.5187 57.6974 26.543C57.3957 28.8302 56.1821 26.0741 55.4602 26.9008C55.0422 26.395 55.0904 25.8289 54.8004 25.2829C54.6626 25.0243 54.2163 24.8267 54.1309 24.5989C54.0131 24.2867 54.2735 24.0247 54.1819 23.7326C53.8203 22.5837 51.3063 22.435 50.2958 22.3713C50.0203 22.3539 49.8027 22.2293 49.5244 22.3506C49.0485 22.5576 49.3116 22.8604 49.0106 23.1471C48.5815 23.5558 47.7921 23.3622 47.3376 23.6161C46.2472 24.2324 46.292 26.1545 45.4689 27.0897C45.0123 27.6089 43.9674 27.8159 43.8847 28.4443C43.8489 28.7123 44.0914 29.1216 44.0652 29.4492C44.0418 29.7487 43.8999 30.0689 43.9102 30.4019C43.9454 31.4811 44.1589 32.7942 44.3187 33.8856C44.4103 34.5053 44.8208 34.928 45.4331 35.1685C45.938 35.3695 46.7115 35.6582 47.2542 35.7326C47.9795 35.8331 48.2998 35.5189 48.711 36.1345C49.0374 36.6269 49.0553 37.459 49.9129 37.3344C50.0678 38.0419 49.0753 38.4572 48.6559 38.8619C48.1179 39.3811 48.0057 40.061 48.036 40.8174C48.0725 41.7252 48.1048 41.9027 47.4526 42.6611C46.9429 43.2526 46.3774 43.7283 45.8037 44.2689C45.2526 44.7868 44.5446 44.9898 44.1272 45.6443C43.7429 46.2473 43.6802 46.8937 43.167 47.4759C42.7138 47.9891 42.2234 48.6322 41.6993 49.0838C41.162 49.544 40.4161 49.7778 39.852 50.2401C39.3161 50.6809 38.8787 51.4172 38.9642 52.1159C39.053 52.8475 39.6419 52.8428 40.3631 52.7993C41.7854 52.7128 43.0258 51.8071 44.2973 51.2725C45.5956 50.7251 46.8423 50.2676 47.9478 49.5467C48.1827 49.394 48.4355 49.2566 48.6889 49.1206C45.1029 52.0801 40.7852 54.0785 36.1622 54.9183C31.5392 55.7581 26.771 55.4103 22.3285 53.9093C17.886 52.4083 13.9229 49.8059 10.8308 46.3594C7.73871 42.9128 5.62452 38.7412 4.69709 34.2567C3.2734 27.3724 4.69227 20.3615 8.69196 14.5143C10.6502 11.6336 13.1763 9.15932 16.1242 7.23455C19.0721 5.30977 22.3831 3.97276 25.8658 3.30088C26.0318 3.26872 26.1985 3.24527 26.3652 3.21579C26.1323 3.40786 25.8734 3.56791 25.5958 3.69145C24.9298 3.95943 24.2382 3.79328 23.577 4.02173C22.9743 4.23008 22.289 4.69167 21.8516 5.08023C21.3784 5.50028 21.0375 6.16285 20.512 6.5474C19.8439 7.03578 19.164 7.14297 18.7363 7.9335C19.4699 8.78901 20.1538 6.95271 20.9803 7.36941C20.8205 8.11773 19.91 9.11125 19.401 9.70883C18.7005 10.5308 18.374 10.6347 18.3968 11.7454C18.4153 12.6251 18.2824 13.1195 19.0497 13.7553C19.7523 14.3368 19.8397 14.8767 19.6696 15.7972C20.0464 16.1603 19.7571 16.1824 20.8405 16.5797M46.9229 6.07375C33.8631 -2.37551 16.234 1.07199 7.54653 13.7747C-1.14094 26.4774 2.40486 43.6244 15.4674 52.0737C28.53 60.523 46.1542 57.0761 54.8397 44.3734C63.5251 31.6707 59.982 14.5237 46.9229 6.07375Z" stroke="white" stroke-width="0.5" stroke-miterlimit="10"/>
</svg>
