<svg width="50" height="50" viewBox="0 0 50 50" fill="none" xmlns="http://www.w3.org/2000/svg">
<rect width="50" height="50" rx="8" fill="#1DA99D"/>
<g clip-path="url(#clip0_600_2470)">
<path d="M34.8571 22.8571H27.5714C27.3348 22.8571 27.1429 22.6652 27.1429 22.4286V15.1429C27.1429 13.9595 26.1834 13 25 13C23.8166 13 22.8571 13.9595 22.8571 15.1429V22.4286C22.8571 22.6652 22.6652 22.8571 22.4286 22.8571H15.1429C13.9595 22.8571 13 23.8166 13 25C13 26.1834 13.9595 27.1429 15.1429 27.1429H22.4286C22.6652 27.1429 22.8571 27.3348 22.8571 27.5714V34.8571C22.8571 36.0405 23.8166 37 25 37C26.1834 37 27.1429 36.0405 27.1429 34.8571V27.5714C27.1429 27.3348 27.3348 27.1429 27.5714 27.1429H34.8571C36.0405 27.1429 37 26.1834 37 25C37 23.8166 36.0405 22.8571 34.8571 22.8571Z" fill="white"/>
</g>
<defs>
<clipPath id="clip0_600_2470">
<rect width="24" height="24" fill="white" transform="translate(13 13)"/>
</clipPath>
</defs>
</svg>
