<svg width="14" height="105" viewBox="0 0 14 105" fill="none" xmlns="http://www.w3.org/2000/svg">
<path d="M13 49.7305L7.27049 55.9893L1.01168 50.2598" stroke="#1DA99D" stroke-width="2"/>
<circle cx="7.09016" cy="2.08627" r="2" transform="rotate(87.472 7.09016 2.08627)" fill="#C4C4C4"/>
<circle cx="7.09016" cy="12.1205" r="2" transform="rotate(87.472 7.09016 12.1205)" fill="#C4C4C4"/>
<circle cx="7.09016" cy="22.1546" r="2" transform="rotate(87.472 7.09016 22.1546)" fill="#C4C4C4"/>
<circle cx="7.09016" cy="32.1449" r="2" transform="rotate(87.472 7.09016 32.1449)" fill="#C4C4C4"/>
<circle cx="7.09016" cy="74.971" r="2" transform="rotate(87.472 7.09016 74.971)" fill="#C4C4C4"/>
<circle cx="7.09016" cy="66.0238" r="2" transform="rotate(87.472 7.09016 66.0238)" fill="#C4C4C4"/>
<circle cx="7.09016" cy="42.0912" r="2" transform="rotate(87.472 7.09016 42.0912)" fill="#C4C4C4"/>
<circle cx="7.09016" cy="84.9173" r="2" transform="rotate(87.472 7.09016 84.9173)" fill="#C4C4C4"/>
<circle cx="7.09016" cy="93.8636" r="2" transform="rotate(87.472 7.09016 93.8636)" fill="#C4C4C4"/>
<circle cx="7.09016" cy="102.811" r="2" transform="rotate(87.472 7.09016 102.811)" fill="#C4C4C4"/>
</svg>
